<?xml version="1.0" encoding="UTF-8"?>
<!DOCTYPE svg PUBLIC "-//W3C//DTD SVG 1.1//EN" "http://www.w3.org/Graphics/SVG/1.1/DTD/svg11.dtd">
<svg xmlns="http://www.w3.org/2000/svg" version="1.1" width="150px" height="39px" style="shape-rendering:geometricPrecision; text-rendering:geometricPrecision; image-rendering:optimizeQuality; fill-rule:evenodd; clip-rule:evenodd" xmlns:xlink="http://www.w3.org/1999/xlink">
<g><path style="opacity:1" fill="#fac615" d="M 129.5,-0.5 C 136.167,-0.5 142.833,-0.5 149.5,-0.5C 149.5,12.5 149.5,25.5 149.5,38.5C 99.5,38.5 49.5,38.5 -0.5,38.5C -0.5,32.1667 -0.5,25.8333 -0.5,19.5C 0.117425,19.3893 0.617425,19.056 1,18.5C 1.00467,21.2292 2.17134,23.2292 4.5,24.5C 5.19238,23.9747 5.69238,23.3081 6,22.5C 6.33333,18.8333 6.66667,15.1667 7,11.5C 7.70956,10.0267 8.87623,9.36007 10.5,9.5C 10.3433,8.12656 10.51,6.79323 11,5.5C 13.6938,6.56699 15.5272,5.56699 16.5,2.5C 18.5654,3.8567 20.5654,5.19004 22.5,6.5C 18.919,6.13764 15.919,7.13764 13.5,9.5C 11.1667,9.83333 9.83333,11.1667 9.5,13.5C 8.88258,13.6107 8.38258,13.944 8,14.5C 7.33333,17.5 7.33333,20.5 8,23.5C 8.65999,25.3237 9.82665,26.657 11.5,27.5C 11.9731,28.9063 12.9731,29.573 14.5,29.5C 14.6107,30.1174 14.944,30.6174 15.5,31C 17,31.1667 18.5,31.3333 20,31.5C 22.5437,31.664 24.7103,30.9973 26.5,29.5C 28.3797,29.7709 29.713,29.1042 30.5,27.5C 33.4568,23.8327 34.1234,19.8327 32.5,15.5C 32.6716,14.5084 32.3382,13.8417 31.5,13.5C 31.4431,12.391 31.1098,11.391 30.5,10.5C 33.3768,11.3726 35.7102,13.0392 37.5,15.5C 38.1719,14.0508 38.8386,12.7175 39.5,11.5C 39.2385,16.5951 38.5718,21.5951 37.5,26.5C 38.3339,27.7479 39.6672,28.4146 41.5,28.5C 44.0975,27.8508 46.5975,27.8508 49,28.5C 49.9503,27.9777 50.7836,27.311 51.5,26.5C 57.6529,28.9073 63.6529,28.9073 69.5,26.5C 70.7647,25.4855 71.4313,23.9855 71.5,22C 71.743,16.4174 69.0763,14.2507 63.5,15.5C 63.281,14.325 63.6143,13.325 64.5,12.5C 67.0666,12.2223 69.7333,12.0556 72.5,12C 71.1667,11.6667 69.8333,11.3333 68.5,11C 72.1837,9.89627 75.8504,8.7296 79.5,7.5C 80.727,6.40958 81.5604,5.07625 82,3.5C 83.827,5.23987 83.6603,6.90654 81.5,8.5C 83.1591,9.81679 84.3257,11.4835 85,13.5C 85.5356,11.4328 85.0356,9.59944 83.5,8C 85.0824,8.19287 86.4157,9.0262 87.5,10.5C 87.5,15.8333 87.5,21.1667 87.5,26.5C 91.5839,26.9569 95.4172,26.2902 99,24.5C 100.221,20.7179 99.3872,17.7179 96.5,15.5C 98.2341,14.438 99.9008,14.438 101.5,15.5C 103.372,17.0615 105.705,18.0615 108.5,18.5C 105.855,19.1919 103.355,20.1919 101,21.5C 100.289,23.3668 100.789,24.8668 102.5,26C 106.027,26.8075 109.36,26.6408 112.5,25.5C 113.167,25.8333 113.833,26.1667 114.5,26.5C 115.833,26.5 117.167,26.5 118.5,26.5C 118.5,23.5 118.5,20.5 118.5,17.5C 119.822,17.33 120.989,17.6634 122,18.5C 122.497,21.146 122.664,23.8127 122.5,26.5C 123.833,26.5 125.167,26.5 126.5,26.5C 128.323,16.6596 124.323,12.993 114.5,15.5C 113.833,16.1667 113.167,16.8333 112.5,17.5C 111.778,16.4489 110.778,15.7822 109.5,15.5C 111.193,13.8251 113.193,12.4918 115.5,11.5C 114.975,10.8076 114.308,10.3076 113.5,10C 118.287,9.04065 122.954,8.54065 127.5,8.5C 128.406,5.56415 129.072,2.56415 129.5,-0.5 Z"/></g>
<g><path style="opacity:1" fill="#fdc80c" d="M -0.5,-0.5 C 42.8333,-0.5 86.1667,-0.5 129.5,-0.5C 129.072,2.56415 128.406,5.56415 127.5,8.5C 122.954,8.54065 118.287,9.04065 113.5,10C 114.308,10.3076 114.975,10.8076 115.5,11.5C 113.193,12.4918 111.193,13.8251 109.5,15.5C 106.833,15.5 104.167,15.5 101.5,15.5C 99.9008,14.438 98.2341,14.438 96.5,15.5C 94.8333,15.5 93.1667,15.5 91.5,15.5C 91.5,13.8333 91.5,12.1667 91.5,10.5C 90.1667,10.5 88.8333,10.5 87.5,10.5C 86.4157,9.0262 85.0824,8.19287 83.5,8C 85.0356,9.59944 85.5356,11.4328 85,13.5C 84.3257,11.4835 83.1591,9.81679 81.5,8.5C 83.6603,6.90654 83.827,5.23987 82,3.5C 81.5604,5.07625 80.727,6.40958 79.5,7.5C 75.8504,8.7296 72.1837,9.89627 68.5,11C 69.8333,11.3333 71.1667,11.6667 72.5,12C 69.7333,12.0556 67.0666,12.2223 64.5,12.5C 63.6143,13.325 63.281,14.325 63.5,15.5C 62.5,15.5 61.5,15.5 60.5,15.5C 59.7784,15.9175 59.2784,16.5842 59,17.5C 58.7638,15.236 58.2638,13.0693 57.5,11C 54.854,10.5026 52.1873,10.3359 49.5,10.5C 49.762,11.9778 49.4287,13.3112 48.5,14.5C 47.8589,13.0065 46.8589,12.0065 45.5,11.5C 43.5,11.5 41.5,11.5 39.5,11.5C 38.8386,12.7175 38.1719,14.0508 37.5,15.5C 35.7102,13.0392 33.3768,11.3726 30.5,10.5C 28.1123,8.63947 25.4456,7.30614 22.5,6.5C 20.5654,5.19004 18.5654,3.8567 16.5,2.5C 15.5272,5.56699 13.6938,6.56699 11,5.5C 10.51,6.79323 10.3433,8.12656 10.5,9.5C 8.87623,9.36007 7.70956,10.0267 7,11.5C 6.66667,15.1667 6.33333,18.8333 6,22.5C 5.69238,23.3081 5.19238,23.9747 4.5,24.5C 2.17134,23.2292 1.00467,21.2292 1,18.5C 0.617425,19.056 0.117425,19.3893 -0.5,19.5C -0.5,12.8333 -0.5,6.16667 -0.5,-0.5 Z"/></g>
<g><path style="opacity:1" fill="#2d2401" d="M 13.5,9.5 C 12.5,11.1667 11.1667,12.5 9.5,13.5C 9.83333,11.1667 11.1667,9.83333 13.5,9.5 Z"/></g>
<g><path style="opacity:1" fill="#f4c82f" d="M 14.5,14.5 C 12.8333,15.1667 11.1667,15.8333 9.5,16.5C 9.5,15.5 9.5,14.5 9.5,13.5C 11.1667,12.5 12.5,11.1667 13.5,9.5C 16.1128,8.56512 18.7795,8.39845 21.5,9C 18.6639,10.391 16.3306,12.2243 14.5,14.5 Z"/></g>
<g><path style="opacity:1" fill="#eac231" d="M 60.5,15.5 C 60.4614,16.7562 60.9614,17.7562 62,18.5C 63.8138,17.2404 65.6471,17.2404 67.5,18.5C 65.1378,19.2715 62.8045,20.1048 60.5,21C 59.1398,22.9376 59.4732,24.6043 61.5,26C 64.146,26.4974 66.8127,26.6641 69.5,26.5C 63.6529,28.9073 57.6529,28.9073 51.5,26.5C 50.7836,27.311 49.9503,27.9777 49,28.5C 46.5975,27.8508 44.0975,27.8508 41.5,28.5C 39.6672,28.4146 38.3339,27.7479 37.5,26.5C 38.8333,26.5 40.1667,26.5 41.5,26.5C 42.2159,14.8442 43.8826,14.8442 46.5,26.5C 47.8221,26.67 48.9887,26.3366 50,25.5C 52.7542,14.9311 54.2542,15.2645 54.5,26.5C 55.8333,26.5 57.1667,26.5 58.5,26.5C 58.0375,21.8376 57.5375,17.1709 57,12.5C 55.1862,11.2404 53.3529,11.2404 51.5,12.5C 48.5981,21.7997 46.5981,21.4663 45.5,11.5C 46.8589,12.0065 47.8589,13.0065 48.5,14.5C 49.4287,13.3112 49.762,11.9778 49.5,10.5C 52.1873,10.3359 54.854,10.5026 57.5,11C 58.2638,13.0693 58.7638,15.236 59,17.5C 59.2784,16.5842 59.7784,15.9175 60.5,15.5 Z"/></g>
<g><path style="opacity:1" fill="#e2c03f" d="M 31.5,13.5 C 31.5905,16.1522 30.9238,18.4855 29.5,20.5C 29.478,15.5783 27.478,11.745 23.5,9C 24.9078,8.68475 26.2411,9.01809 27.5,10C 28.7051,11.3756 30.0384,12.5423 31.5,13.5 Z"/></g>
<g><path style="opacity:1" fill="#715823" d="M 22.5,6.5 C 25.4456,7.30614 28.1123,8.63947 30.5,10.5C 31.1098,11.391 31.4431,12.391 31.5,13.5C 30.0384,12.5423 28.7051,11.3756 27.5,10C 26.2411,9.01809 24.9078,8.68475 23.5,9C 27.478,11.745 29.478,15.5783 29.5,20.5C 26.8927,27.2231 26.226,27.0564 27.5,20C 27.3158,18.6244 26.6491,17.7911 25.5,17.5C 25.631,16.7611 25.4643,16.0944 25,15.5C 24.6401,17.6079 23.9734,19.6079 23,21.5C 22.6667,21.1667 22.3333,20.8333 22,20.5C 21.9326,18.2648 22.4326,16.0981 23.5,14C 22.344,12.3851 21.0107,12.3851 19.5,14C 20.1667,14.3333 20.8333,14.6667 21.5,15C 20.7775,16.7505 19.7775,18.2505 18.5,19.5C 17.325,19.719 16.325,19.3857 15.5,18.5C 16.3652,18.4361 17.3652,18.1027 18.5,17.5C 19.521,16.9984 19.6877,16.3317 19,15.5C 18.6667,15.8333 18.3333,16.1667 18,16.5C 17.1841,15.1772 16.0174,14.5106 14.5,14.5C 16.3306,12.2243 18.6639,10.391 21.5,9C 18.7795,8.39845 16.1128,8.56512 13.5,9.5C 15.919,7.13764 18.919,6.13764 22.5,6.5 Z"/></g>
<g><path style="opacity:1" fill="#0b0202" d="M 114.5,15.5 C 124.323,12.993 128.323,16.6596 126.5,26.5C 125.167,26.5 123.833,26.5 122.5,26.5C 122.664,23.8127 122.497,21.146 122,18.5C 120.989,17.6634 119.822,17.33 118.5,17.5C 118.5,20.5 118.5,23.5 118.5,26.5C 117.167,26.5 115.833,26.5 114.5,26.5C 114.5,22.8333 114.5,19.1667 114.5,15.5 Z"/></g>
<g><path style="opacity:1" fill="#100704" d="M 128.5,10.5 C 129.833,10.5 131.167,10.5 132.5,10.5C 132.335,13.5184 132.502,16.5184 133,19.5C 134.613,16.3563 137.113,15.1896 140.5,16C 136.294,19.7349 136.627,23.0682 141.5,26C 137.316,27.1655 134.483,25.6655 133,21.5C 132.506,23.1341 132.34,24.8008 132.5,26.5C 131.167,26.5 129.833,26.5 128.5,26.5C 128.5,21.1667 128.5,15.8333 128.5,10.5 Z"/></g>
<g><path style="opacity:1" fill="#382a15" d="M 25.5,17.5 C 26.6491,17.7911 27.3158,18.6244 27.5,20C 26.226,27.0564 26.8927,27.2231 29.5,20.5C 30.3798,23.125 29.7131,25.4584 27.5,27.5C 24.8837,28.9145 22.8837,28.2478 21.5,25.5C 22.7079,24.7659 24.0413,24.4326 25.5,24.5C 26.5463,22.1183 26.5463,19.7849 25.5,17.5 Z"/></g>
<g><path style="opacity:1" fill="#ad9959" d="M 31.5,13.5 C 32.3382,13.8417 32.6716,14.5084 32.5,15.5C 33.014,19.7532 32.014,23.5866 29.5,27C 29.7284,27.3988 30.0618,27.5654 30.5,27.5C 29.713,29.1042 28.3797,29.7709 26.5,29.5C 26.8333,28.8333 27.1667,28.1667 27.5,27.5C 29.7131,25.4584 30.3798,23.125 29.5,20.5C 30.9238,18.4855 31.5905,16.1522 31.5,13.5 Z"/></g>
<g><path style="opacity:1" fill="#96782b" d="M 14.5,14.5 C 16.0174,14.5106 17.1841,15.1772 18,16.5C 18.3333,16.1667 18.6667,15.8333 19,15.5C 19.6877,16.3317 19.521,16.9984 18.5,17.5C 17.3652,18.1027 16.3652,18.4361 15.5,18.5C 16.325,19.3857 17.325,19.719 18.5,19.5C 18.9887,20.9952 19.6554,22.3285 20.5,23.5C 20.1435,24.8699 19.3102,25.8699 18,26.5C 15.9936,24.0051 13.4936,22.0051 10.5,20.5C 9.70245,20.9569 9.36912,21.6236 9.5,22.5C 8.16667,20.5 8.16667,18.5 9.5,16.5C 11.1667,15.8333 12.8333,15.1667 14.5,14.5 Z"/></g>
<g><path style="opacity:1" fill="#c1a140" d="M 25.5,17.5 C 26.5463,19.7849 26.5463,22.1183 25.5,24.5C 24.0413,24.4326 22.7079,24.7659 21.5,25.5C 21.6716,24.5084 21.3382,23.8417 20.5,23.5C 19.6554,22.3285 18.9887,20.9952 18.5,19.5C 19.7775,18.2505 20.7775,16.7505 21.5,15C 20.8333,14.6667 20.1667,14.3333 19.5,14C 21.0107,12.3851 22.344,12.3851 23.5,14C 22.4326,16.0981 21.9326,18.2648 22,20.5C 22.3333,20.8333 22.6667,21.1667 23,21.5C 23.9734,19.6079 24.6401,17.6079 25,15.5C 25.4643,16.0944 25.631,16.7611 25.5,17.5 Z"/></g>
<g><path style="opacity:1" fill="#110805" d="M 101.5,15.5 C 104.167,15.5 106.833,15.5 109.5,15.5C 110.778,15.7822 111.778,16.4489 112.5,17.5C 112.5,20.1667 112.5,22.8333 112.5,25.5C 109.36,26.6408 106.027,26.8075 102.5,26C 100.789,24.8668 100.289,23.3668 101,21.5C 103.355,20.1919 105.855,19.1919 108.5,18.5C 105.705,18.0615 103.372,17.0615 101.5,15.5 Z"/></g>
<g><path style="opacity:1" fill="#f0c52e" d="M 20.5,23.5 C 21.3382,23.8417 21.6716,24.5084 21.5,25.5C 22.8837,28.2478 24.8837,28.9145 27.5,27.5C 27.1667,28.1667 26.8333,28.8333 26.5,29.5C 22.4841,30.7425 18.4841,30.7425 14.5,29.5C 14.0269,28.0937 13.0269,27.427 11.5,27.5C 10.8333,25.8333 10.1667,24.1667 9.5,22.5C 9.36912,21.6236 9.70245,20.9569 10.5,20.5C 13.4936,22.0051 15.9936,24.0051 18,26.5C 19.3102,25.8699 20.1435,24.8699 20.5,23.5 Z"/></g>
<g><path style="opacity:1" fill="#130b07" d="M 39.5,11.5 C 41.5,11.5 43.5,11.5 45.5,11.5C 46.5981,21.4663 48.5981,21.7997 51.5,12.5C 53.3529,11.2404 55.1862,11.2404 57,12.5C 57.5375,17.1709 58.0375,21.8376 58.5,26.5C 57.1667,26.5 55.8333,26.5 54.5,26.5C 54.2542,15.2645 52.7542,14.9311 50,25.5C 48.9887,26.3366 47.8221,26.67 46.5,26.5C 43.8826,14.8442 42.2159,14.8442 41.5,26.5C 40.1667,26.5 38.8333,26.5 37.5,26.5C 38.5718,21.5951 39.2385,16.5951 39.5,11.5 Z"/></g>
<g><path style="opacity:1" fill="#bea65a" d="M 114.5,15.5 C 114.5,19.1667 114.5,22.8333 114.5,26.5C 113.833,26.1667 113.167,25.8333 112.5,25.5C 112.5,22.8333 112.5,20.1667 112.5,17.5C 113.167,16.8333 113.833,16.1667 114.5,15.5 Z"/></g>
<g><path style="opacity:1" fill="#3a270d" d="M 9.5,13.5 C 9.5,14.5 9.5,15.5 9.5,16.5C 8.16667,18.5 8.16667,20.5 9.5,22.5C 10.1667,24.1667 10.8333,25.8333 11.5,27.5C 9.82665,26.657 8.65999,25.3237 8,23.5C 7.33333,20.5 7.33333,17.5 8,14.5C 8.38258,13.944 8.88258,13.6107 9.5,13.5 Z"/></g>
<g><path style="opacity:1" fill="#e2bf4a" d="M 104.5,21.5 C 105.833,21.5 107.167,21.5 108.5,21.5C 108.5,22.5 108.5,23.5 108.5,24.5C 107.167,24.5 105.833,24.5 104.5,24.5C 104.5,23.5 104.5,22.5 104.5,21.5 Z"/></g>
<g><path style="opacity:1" fill="#402d13" d="M 32.5,15.5 C 34.1234,19.8327 33.4568,23.8327 30.5,27.5C 30.0618,27.5654 29.7284,27.3988 29.5,27C 32.014,23.5866 33.014,19.7532 32.5,15.5 Z"/></g>
<g><path style="opacity:1" fill="#0d0407" d="M 60.5,15.5 C 61.5,15.5 62.5,15.5 63.5,15.5C 69.0763,14.2507 71.743,16.4174 71.5,22C 71.4313,23.9855 70.7647,25.4855 69.5,26.5C 66.8127,26.6641 64.146,26.4974 61.5,26C 59.4732,24.6043 59.1398,22.9376 60.5,21C 62.8045,20.1048 65.1378,19.2715 67.5,18.5C 65.6471,17.2404 63.8138,17.2404 62,18.5C 60.9614,17.7562 60.4614,16.7562 60.5,15.5 Z"/></g>
<g><path style="opacity:1" fill="#e0c344" d="M 63.5,21.5 C 64.8333,21.5 66.1667,21.5 67.5,21.5C 67.5,22.5 67.5,23.5 67.5,24.5C 66.1667,24.5 64.8333,24.5 63.5,24.5C 63.5,23.5 63.5,22.5 63.5,21.5 Z"/></g>
<g><path style="opacity:1" fill="#0e0606" d="M 87.5,10.5 C 88.8333,10.5 90.1667,10.5 91.5,10.5C 91.5,12.1667 91.5,13.8333 91.5,15.5C 93.1667,15.5 94.8333,15.5 96.5,15.5C 99.3872,17.7179 100.221,20.7179 99,24.5C 95.4172,26.2902 91.5839,26.9569 87.5,26.5C 87.5,21.1667 87.5,15.8333 87.5,10.5 Z"/></g>
<g><path style="opacity:1" fill="#dcb42d" d="M 91.5,17.5 C 95.4735,18.0755 96.4735,20.2421 94.5,24C 93.552,24.4828 92.552,24.6495 91.5,24.5C 91.5,22.1667 91.5,19.8333 91.5,17.5 Z"/></g>
<g><path style="opacity:1" fill="#391a07" d="M 11.5,27.5 C 13.0269,27.427 14.0269,28.0937 14.5,29.5C 12.9731,29.573 11.9731,28.9063 11.5,27.5 Z"/></g>
<g><path style="opacity:1" fill="#0c0406" d="M 71.5,16.5 C 72.9187,15.5489 74.5853,15.2155 76.5,15.5C 77.5506,23.9509 79.2172,24.2842 81.5,16.5C 82.6888,15.5713 84.0222,15.238 85.5,15.5C 84.1183,21.2676 81.4517,26.2676 77.5,30.5C 76.8333,30.1667 76.1667,29.8333 75.5,29.5C 76.2291,24.6025 74.8958,20.2691 71.5,16.5 Z"/></g>
<g><path style="opacity:1" fill="#302215" d="M 14.5,29.5 C 18.4841,30.7425 22.4841,30.7425 26.5,29.5C 24.7103,30.9973 22.5437,31.664 20,31.5C 18.5,31.3333 17,31.1667 15.5,31C 14.944,30.6174 14.6107,30.1174 14.5,29.5 Z"/></g>
</svg>
