<?xml version="1.0" encoding="UTF-8"?>
<!DOCTYPE svg PUBLIC "-//W3C//DTD SVG 1.1//EN" "http://www.w3.org/Graphics/SVG/1.1/DTD/svg11.dtd">
<svg xmlns="http://www.w3.org/2000/svg" version="1.1" width="512px" height="512px" style="shape-rendering:geometricPrecision; text-rendering:geometricPrecision; image-rendering:optimizeQuality; fill-rule:evenodd; clip-rule:evenodd" xmlns:xlink="http://www.w3.org/1999/xlink">
<g><path style="opacity:0.972" fill="#030202" d="M 511.5,310.5 C 511.5,318.167 511.5,325.833 511.5,333.5C 506.15,358.518 491.484,375.518 467.5,384.5C 467.963,410.218 467.463,435.885 466,461.5C 461.432,474.401 452.599,482.901 439.5,487C 336.863,488.653 234.196,488.987 131.5,488C 112.544,484.044 101.377,472.544 98,453.5C 97.6667,396.167 97.3333,338.833 97,281.5C 64.6029,252.929 32.1029,224.595 -0.5,196.5C -0.5,193.833 -0.5,191.167 -0.5,188.5C 47.3016,133.859 94.9683,79.0261 142.5,24C 145.5,22 148.5,22 151.5,24C 168.5,38.5 185.5,53 202.5,67.5C 232.167,54 261.833,40.5 291.5,27C 294.167,26.3333 296.833,26.3333 299.5,27C 302.293,30.0808 304.46,33.5808 306,37.5C 313.736,54.8753 321.57,72.2086 329.5,89.5C 345.156,90.3329 360.823,90.8329 376.5,91C 396,110.5 415.5,130 435,149.5C 436.32,184.748 436.987,220.082 437,255.5C 476.731,253.772 501.565,272.105 511.5,310.5 Z"/></g>
<g><path style="opacity:1" fill="#006592" d="M 146.5,40.5 C 147.922,40.7086 149.255,41.2086 150.5,42C 162.685,53.0195 175.018,63.8528 187.5,74.5C 158.317,88.2572 128.984,101.757 99.5,115C 93.4317,117.805 91.9317,122.305 95,128.5C 109.371,160.075 123.871,191.575 138.5,223C 112.088,223.079 98.5884,236.246 98,262.5C 70.5381,239.374 43.3714,215.874 16.5,192C 60.4402,141.903 103.774,91.4028 146.5,40.5 Z"/></g>
<g><path style="opacity:1" fill="#5fb6fd" d="M 207.5,95.5 C 206.833,140.833 206.167,186.167 205.5,231.5C 200.882,227.694 195.549,225.194 189.5,224C 177.486,223.833 165.486,223.333 153.5,222.5C 138.833,190.5 124.167,158.5 109.5,126.5C 170.258,98.3714 231.092,70.3714 292,42.5C 299.167,58.1667 306.333,73.8333 313.5,89.5C 279.505,90.3332 245.505,90.8332 211.5,91C 209.616,92.0487 208.282,93.5487 207.5,95.5 Z"/></g>
<g><path style="opacity:1" fill="#1f3c54" d="M 207.5,95.5 C 207.833,141.172 207.5,186.838 206.5,232.5C 205.893,232.376 205.56,232.043 205.5,231.5C 206.167,186.167 206.833,140.833 207.5,95.5 Z"/></g>
<g><path style="opacity:1" fill="#8c9499" d="M 366.5,143.5 C 365.505,131.011 365.171,118.344 365.5,105.5C 317.5,105.5 269.5,105.5 221.5,105.5C 221.5,152.167 221.5,198.833 221.5,245.5C 220.501,198.67 220.168,151.67 220.5,104.5C 269.167,104.5 317.833,104.5 366.5,104.5C 366.5,117.5 366.5,130.5 366.5,143.5 Z"/></g>
<g><path style="opacity:1" fill="#e5f1fa" d="M 366.5,143.5 C 367.833,153.5 373.5,159.167 383.5,160.5C 393.987,161.494 404.654,161.828 415.5,161.5C 415.5,194.833 415.5,228.167 415.5,261.5C 406.575,266.154 398.908,272.487 392.5,280.5C 348.504,281.667 304.504,281.833 260.5,281C 256.359,279.428 252.692,277.095 249.5,274C 239.964,264.632 230.631,255.132 221.5,245.5C 221.5,198.833 221.5,152.167 221.5,105.5C 269.5,105.5 317.5,105.5 365.5,105.5C 365.171,118.344 365.505,131.011 366.5,143.5 Z"/></g>
<g><path style="opacity:1" fill="#b4bdc5" d="M 379.5,115.5 C 390.426,124.758 400.76,134.758 410.5,145.5C 401.184,146.665 391.851,146.832 382.5,146C 381.667,145.167 380.833,144.333 380,143.5C 379.5,134.173 379.334,124.839 379.5,115.5 Z"/></g>
<g><path style="opacity:1" fill="#000000" d="M 244.5,139.5 C 277.835,139.333 311.168,139.5 344.5,140C 348.41,143.925 348.41,147.925 344.5,152C 311.167,152.667 277.833,152.667 244.5,152C 240.547,147.835 240.547,143.669 244.5,139.5 Z"/></g>
<g><path style="opacity:1" fill="#d1dbe4" d="M 383.5,160.5 C 396.167,160.5 408.833,160.5 421.5,160.5C 421.833,193.507 421.5,226.507 420.5,259.5C 418.925,260.456 417.258,261.123 415.5,261.5C 415.5,228.167 415.5,194.833 415.5,161.5C 404.654,161.828 393.987,161.494 383.5,160.5 Z"/></g>
<g><path style="opacity:1" fill="#000000" d="M 244.5,173.5 C 295.501,173.333 346.501,173.5 397.5,174C 401.629,176.631 402.462,180.131 400,184.5C 399.25,185.126 398.416,185.626 397.5,186C 346.5,186.667 295.5,186.667 244.5,186C 240.547,181.835 240.547,177.669 244.5,173.5 Z"/></g>
<g><path style="opacity:1" fill="#0a0a0a" d="M 244.5,207.5 C 295.501,207.333 346.501,207.5 397.5,208C 402.964,212.705 402.631,217.038 396.5,221C 346.5,221.667 296.5,221.667 246.5,221C 240.661,217.295 239.994,212.795 244.5,207.5 Z"/></g>
<g><path style="opacity:1" fill="#feb956" d="M 127.5,238.5 C 147.169,238.333 166.836,238.5 186.5,239C 200.529,253.363 214.862,267.363 229.5,281C 233.554,284.527 238.22,286.694 243.5,287.5C 247.917,291.036 252.917,293.536 258.5,295C 300.167,295.333 341.833,295.667 383.5,296C 373.258,324.285 378.591,349.285 399.5,371C 411.777,381.802 426.11,387.636 442.5,388.5C 442.667,411.169 442.5,433.836 442,456.5C 439.837,462.836 436.67,468.503 432.5,473.5C 331.499,473.667 230.499,473.5 129.5,473C 120.458,469.96 114.958,463.793 113,454.5C 112.333,386.5 112.333,318.5 113,250.5C 115.911,244.082 120.744,240.082 127.5,238.5 Z"/></g>
<g><path style="opacity:1" fill="#d69b48" d="M 127.5,238.5 C 147.996,237.337 168.663,237.171 189.5,238C 193.165,239.497 196.498,241.497 199.5,244C 214.062,258.729 228.728,273.229 243.5,287.5C 238.22,286.694 233.554,284.527 229.5,281C 214.862,267.363 200.529,253.363 186.5,239C 166.836,238.5 147.169,238.333 127.5,238.5 Z"/></g>
<g><path style="opacity:1" fill="#0a0a0a" d="M 244.5,241.5 C 295.501,241.333 346.501,241.5 397.5,242C 402.964,246.705 402.631,251.038 396.5,255C 346.5,255.667 296.5,255.667 246.5,255C 240.661,251.295 239.994,246.795 244.5,241.5 Z"/></g>
<g><path style="opacity:1" fill="#24c53a" d="M 486.5,290.5 C 494.811,306.067 496.645,322.401 492,339.5C 489.798,344.563 487.631,349.563 485.5,354.5C 469.195,373.139 449.195,378.639 425.5,371C 400.41,358.661 389.576,338.494 393,310.5C 404.623,276.937 427.789,264.104 462.5,272C 472.628,275.546 480.628,281.713 486.5,290.5 Z"/></g>
<g><path style="opacity:1" fill="#020601" d="M 472.5,293.5 C 481.146,292.811 483.979,296.478 481,304.5C 466.167,319.333 451.333,334.167 436.5,349C 433.833,351 431.167,351 428.5,349C 421.667,342.167 414.833,335.333 408,328.5C 406.93,319.248 410.763,316.414 419.5,320C 423.5,324 427.5,328 431.5,332C 432.167,332.667 432.833,332.667 433.5,332C 446.395,318.937 459.395,306.104 472.5,293.5 Z"/></g>
<g><path style="opacity:1" fill="#1fa832" d="M 486.5,290.5 C 498.176,305.611 500.676,322.277 494,340.5C 492.129,345.845 489.296,350.511 485.5,354.5C 487.631,349.563 489.798,344.563 492,339.5C 496.645,322.401 494.811,306.067 486.5,290.5 Z"/></g>
<g><path style="opacity:1" fill="#060401" d="M 146.5,382.5 C 171.169,382.333 195.836,382.5 220.5,383C 224.559,385.467 225.559,388.967 223.5,393.5C 222.335,394.584 221.002,395.417 219.5,396C 195.5,396.667 171.5,396.667 147.5,396C 141.317,391.921 140.983,387.421 146.5,382.5 Z"/></g>
<g><path style="opacity:1" fill="#e4a54d" d="M 442.5,388.5 C 446.167,388.5 449.833,388.5 453.5,388.5C 453.667,410.503 453.5,432.503 453,454.5C 449.81,464.86 442.977,471.193 432.5,473.5C 436.67,468.503 439.837,462.836 442,456.5C 442.5,433.836 442.667,411.169 442.5,388.5 Z"/></g>
<g><path style="opacity:1" fill="#0b0703" d="M 146.5,430.5 C 237.501,430.333 328.501,430.5 419.5,431C 423.957,436.135 423.29,440.468 417.5,444C 327.5,444.667 237.5,444.667 147.5,444C 141.317,439.921 140.983,435.421 146.5,430.5 Z"/></g>
</svg>
