<?xml version="1.0" encoding="UTF-8"?>
<!DOCTYPE svg PUBLIC "-//W3C//DTD SVG 1.1//EN" "http://www.w3.org/Graphics/SVG/1.1/DTD/svg11.dtd">
<svg xmlns="http://www.w3.org/2000/svg" version="1.1" width="512px" height="512px" style="shape-rendering:geometricPrecision; text-rendering:geometricPrecision; image-rendering:optimizeQuality; fill-rule:evenodd; clip-rule:evenodd" xmlns:xlink="http://www.w3.org/1999/xlink">
<g><path style="opacity:0.978" fill="#020202" d="M 117.5,-0.5 C 120.167,-0.5 122.833,-0.5 125.5,-0.5C 128.095,1.01439 129.429,3.34772 129.5,6.5C 129.667,30.5023 129.5,54.5023 129,78.5C 126.373,89.4611 119.54,95.9611 108.5,98C 87.1693,98.5 65.8359,98.6666 44.5,98.5C 44.3333,198.834 44.5,299.167 45,399.5C 45.7146,402.641 47.5479,404.641 50.5,405.5C 118.665,406.499 186.998,406.833 255.5,406.5C 255.333,380.831 255.5,355.165 256,329.5C 258.6,314.957 265.766,303.29 277.5,294.5C 285.515,289.664 294.182,286.997 303.5,286.5C 319.167,286.5 334.833,286.5 350.5,286.5C 350.667,197.499 350.5,108.499 350,19.5C 349.065,16.8981 347.232,15.3981 344.5,15C 340.514,14.5012 336.514,14.3345 332.5,14.5C 272.832,14.6667 213.166,14.5 153.5,14C 150.72,12.0867 149.053,9.58675 148.5,6.5C 149.063,3.70516 150.396,1.37183 152.5,-0.5C 218.167,-0.5 283.833,-0.5 349.5,-0.5C 362.653,5.45574 368.32,15.7891 366.5,30.5C 378.838,28.7699 388.672,32.7699 396,42.5C 397.399,45.3634 398.399,48.3634 399,51.5C 399.667,121.167 399.667,190.833 399,260.5C 398.101,264.57 395.601,266.57 391.5,266.5C 387.403,266.531 384.903,264.531 384,260.5C 383.667,190.833 383.333,121.167 383,51.5C 382.167,49.3333 380.667,47.8333 378.5,47C 375.518,46.502 372.518,46.3354 369.5,46.5C 368.5,46.5 367.5,46.5 366.5,46.5C 365.501,126.332 365.167,206.332 365.5,286.5C 374.349,286.826 383.016,286.493 391.5,285.5C 405.837,285.333 420.171,285.5 434.5,286C 458.123,288.294 473.29,300.794 480,323.5C 481.143,348.627 481.643,373.794 481.5,399C 481.643,424.206 481.143,449.373 480,474.5C 474.147,494.188 461.313,506.522 441.5,511.5C 392.5,511.5 343.5,511.5 294.5,511.5C 266.601,502.41 253.601,483.077 255.5,453.5C 197.166,453.667 138.832,453.5 80.5,453C 71.3333,450.5 65.5,444.667 63,435.5C 62.5008,430.845 62.3342,426.179 62.5,421.5C 46.3509,424.683 35.5176,418.683 30,403.5C 29.3333,298.167 29.3333,192.833 30,87.5C 58.7006,57.633 87.8672,28.2996 117.5,-0.5 Z"/></g>
<g><path style="opacity:1" fill="#e8f4fd" d="M 129.5,6.5 C 135.833,6.5 142.167,6.5 148.5,6.5C 149.053,9.58675 150.72,12.0867 153.5,14C 213.166,14.5 272.832,14.6667 332.5,14.5C 332.709,15.9217 333.209,17.255 334,18.5C 334.5,107.499 334.667,196.499 334.5,285.5C 323.986,285.172 313.653,285.506 303.5,286.5C 294.182,286.997 285.515,289.664 277.5,294.5C 256.507,296.991 244.007,308.657 240,329.5C 239.5,354.831 239.333,380.164 239.5,405.5C 176.5,405.5 113.5,405.5 50.5,405.5C 47.5479,404.641 45.7146,402.641 45,399.5C 44.5,299.167 44.3333,198.834 44.5,98.5C 65.8359,98.6666 87.1693,98.5 108.5,98C 119.54,95.9611 126.373,89.4611 129,78.5C 129.5,54.5023 129.667,30.5023 129.5,6.5 Z"/></g>
<g><path style="opacity:1" fill="#c7eefd" d="M 332.5,14.5 C 336.514,14.3345 340.514,14.5012 344.5,15C 347.232,15.3981 349.065,16.8981 350,19.5C 350.5,108.499 350.667,197.499 350.5,286.5C 334.833,286.5 319.167,286.5 303.5,286.5C 313.653,285.506 323.986,285.172 334.5,285.5C 334.667,196.499 334.5,107.499 334,18.5C 333.209,17.255 332.709,15.9217 332.5,14.5 Z"/></g>
<g><path style="opacity:1" fill="#5b8996" d="M 112.5,26.5 C 112.56,25.9569 112.893,25.6236 113.5,25.5C 114.827,42.9954 114.827,60.3287 113.5,77.5C 113.83,60.3251 113.497,43.3251 112.5,26.5 Z"/></g>
<g><path style="opacity:1" fill="#99e5fb" d="M 112.5,26.5 C 113.497,43.3251 113.83,60.3251 113.5,77.5C 113.141,79.371 112.141,80.871 110.5,82C 105.599,83.3254 100.599,83.8254 95.5,83.5C 96.0899,82.234 96.5899,80.9007 97,79.5C 97.4999,67.1712 97.6665,54.8378 97.5,42.5C 102.5,37.1667 107.5,31.8333 112.5,26.5 Z"/></g>
<g><path style="opacity:1" fill="#c7eefd" d="M 97.5,42.5 C 97.6665,54.8378 97.4999,67.1712 97,79.5C 96.5899,80.9007 96.0899,82.234 95.5,83.5C 82.4957,83.6666 69.4957,83.4999 56.5,83C 70.0348,69.2981 83.7015,55.7981 97.5,42.5 Z"/></g>
<g><path style="opacity:1" fill="#030404" d="M 170.5,43.5 C 197.169,43.3334 223.835,43.5 250.5,44C 268.614,51.3918 273.448,63.8918 265,81.5C 261.211,86.308 256.378,89.4747 250.5,91C 223.5,91.6667 196.5,91.6667 169.5,91C 155.287,85.7502 149.454,75.5835 152,60.5C 155.833,52.1621 162,46.4954 170.5,43.5 Z"/></g>
<g><path style="opacity:1" fill="#c5eaf8" d="M 366.5,46.5 C 366.5,126.167 366.5,205.833 366.5,285.5C 368.167,285.5 369.833,285.5 371.5,285.5C 371.667,207.166 371.5,128.833 371,50.5C 370.209,49.255 369.709,47.9217 369.5,46.5C 372.518,46.3354 375.518,46.502 378.5,47C 380.667,47.8333 382.167,49.3333 383,51.5C 383.333,121.167 383.667,190.833 384,260.5C 384.903,264.531 387.403,266.531 391.5,266.5C 391.5,272.833 391.5,279.167 391.5,285.5C 383.016,286.493 374.349,286.826 365.5,286.5C 365.167,206.332 365.501,126.332 366.5,46.5 Z"/></g>
<g><path style="opacity:1" fill="#e9f5fe" d="M 366.5,46.5 C 367.5,46.5 368.5,46.5 369.5,46.5C 369.709,47.9217 370.209,49.255 371,50.5C 371.5,128.833 371.667,207.166 371.5,285.5C 369.833,285.5 368.167,285.5 366.5,285.5C 366.5,205.833 366.5,126.167 366.5,46.5 Z"/></g>
<g><path style="opacity:1" fill="#98e5fb" d="M 172.5,59.5 C 193.844,59.167 215.177,59.5003 236.5,60.5C 238.041,65.9991 237.707,71.3324 235.5,76.5C 214.164,76.6666 192.831,76.5 171.5,76C 166.845,73.1034 165.345,68.9367 167,63.5C 168.451,61.5359 170.284,60.2026 172.5,59.5 Z"/></g>
<g><path style="opacity:1" fill="#64ceeb" d="M 172.5,59.5 C 197.33,58.3367 222.33,58.17 247.5,59C 254.16,61.4902 255.993,65.9902 253,72.5C 251.786,74.0488 250.286,75.2155 248.5,76C 244.179,76.499 239.846,76.6657 235.5,76.5C 237.707,71.3324 238.041,65.9991 236.5,60.5C 215.177,59.5003 193.844,59.167 172.5,59.5 Z"/></g>
<g><path style="opacity:1" fill="#090909" d="M 90.5,140.5 C 162.167,140.333 233.834,140.5 305.5,141C 311.078,146.459 310.411,151.126 303.5,155C 233.167,155.667 162.833,155.667 92.5,155C 85.5103,150.908 84.8437,146.075 90.5,140.5 Z"/></g>
<g><path style="opacity:1" fill="#010101" d="M 91.5,184.5 C 162.501,184.333 233.501,184.5 304.5,185C 311.167,189.667 311.167,194.333 304.5,199C 233.5,199.667 162.5,199.667 91.5,199C 84.8987,194.171 84.8987,189.338 91.5,184.5 Z"/></g>
<g><path style="opacity:1" fill="#000000" d="M 90.5,229.5 C 137.501,229.333 184.501,229.5 231.5,230C 236.726,234.251 236.726,238.585 231.5,243C 184.5,243.667 137.5,243.667 90.5,243C 85.2086,238.423 85.2086,233.923 90.5,229.5 Z"/></g>
<g><path style="opacity:1" fill="#010102" d="M 259.5,229.5 C 274.837,229.333 290.17,229.5 305.5,230C 310.711,234.299 310.711,238.632 305.5,243C 290.167,243.667 274.833,243.667 259.5,243C 254.209,238.423 254.209,233.923 259.5,229.5 Z"/></g>
<g><path style="opacity:1" fill="#010102" d="M 91.5,273.5 C 123.168,273.333 154.835,273.5 186.5,274C 192.292,276.09 193.792,279.924 191,285.5C 189.829,286.893 188.329,287.727 186.5,288C 154.833,288.667 123.167,288.667 91.5,288C 84.8987,283.171 84.8987,278.338 91.5,273.5 Z"/></g>
<g><path style="opacity:1" fill="#c6eaf8" d="M 277.5,294.5 C 265.766,303.29 258.6,314.957 256,329.5C 255.5,355.165 255.333,380.831 255.5,406.5C 186.998,406.833 118.665,406.499 50.5,405.5C 113.5,405.5 176.5,405.5 239.5,405.5C 239.333,380.164 239.5,354.831 240,329.5C 244.007,308.657 256.507,296.991 277.5,294.5 Z"/></g>
<g><path style="opacity:1" fill="#0492fa" d="M 432.5,301.5 C 440.912,307.776 446.412,316.109 449,326.5C 449.667,374.167 449.667,421.833 449,469.5C 446.534,480.446 441.034,489.446 432.5,496.5C 387.499,496.667 342.499,496.5 297.5,496C 282.712,491.544 273.878,481.71 271,466.5C 270.333,420.833 270.333,375.167 271,329.5C 274.753,315.414 283.586,306.248 297.5,302C 342.499,301.5 387.499,301.333 432.5,301.5 Z"/></g>
<g><path style="opacity:1" fill="#017df3" d="M 432.5,301.5 C 450.572,303.066 461.739,312.732 466,330.5C 466.667,375.833 466.667,421.167 466,466.5C 462.221,484.781 451.054,494.781 432.5,496.5C 441.034,489.446 446.534,480.446 449,469.5C 449.667,421.833 449.667,374.167 449,326.5C 446.412,316.109 440.912,307.776 432.5,301.5 Z"/></g>
<g><path style="opacity:1" fill="#010101" d="M 90.5,318.5 C 123.168,318.333 155.835,318.5 188.5,319C 193.726,323.251 193.726,327.585 188.5,332C 155.833,332.667 123.167,332.667 90.5,332C 85.2086,327.423 85.2086,322.923 90.5,318.5 Z"/></g>
<g><path style="opacity:1" fill="#020405" d="M 410.5,419.5 C 406.833,419.5 403.167,419.5 399.5,419.5C 399.5,433.833 399.5,448.167 399.5,462.5C 397.72,468.78 393.72,472.947 387.5,475C 374.5,475.667 361.5,475.667 348.5,475C 342.725,472.616 338.892,468.449 337,462.5C 336.5,448.171 336.333,433.837 336.5,419.5C 320.39,421.535 309.89,414.868 305,399.5C 303.684,391.767 305.35,384.767 310,378.5C 322.713,363.456 335.046,348.122 347,332.5C 358.078,321.439 370.578,319.606 384.5,327C 400.761,345.924 416.261,365.424 431,385.5C 433.68,397.792 430.18,407.959 420.5,416C 417.395,417.868 414.062,419.035 410.5,419.5 Z"/></g>
<g><path style="opacity:1" fill="#97e2f8" d="M 398.5,404.5 C 400.377,398.982 400.877,393.315 400,387.5C 388.431,372.207 376.264,357.374 363.5,343C 362.255,342.209 360.922,341.709 359.5,341.5C 361.635,338.396 364.635,337.063 368.5,337.5C 371.553,337.231 374.22,338.064 376.5,340C 389.667,356.5 402.833,373 416,389.5C 418.618,394.946 417.451,399.446 412.5,403C 407.964,404.379 403.297,404.879 398.5,404.5 Z"/></g>
<g><path style="opacity:1" fill="#c6edfc" d="M 359.5,341.5 C 360.922,341.709 362.255,342.209 363.5,343C 376.264,357.374 388.431,372.207 400,387.5C 400.877,393.315 400.377,398.982 398.5,404.5C 392.389,403.095 388.055,405.095 385.5,410.5C 381.81,412.159 377.81,412.993 373.5,413C 371.622,414.543 370.122,416.376 369,418.5C 368.5,432.496 368.333,446.496 368.5,460.5C 362.907,460.807 357.407,460.473 352,459.5C 351.667,442.5 351.333,425.5 351,408.5C 349.786,406.951 348.286,405.785 346.5,405C 339.5,404.667 332.5,404.333 325.5,404C 319.136,399.66 317.969,394.16 322,387.5C 334.743,372.268 347.243,356.935 359.5,341.5 Z"/></g>
<g><path style="opacity:1" fill="#95dff4" d="M 385.5,410.5 C 385.667,426.837 385.5,443.17 385,459.5C 379.593,460.473 374.093,460.807 368.5,460.5C 368.333,446.496 368.5,432.496 369,418.5C 370.122,416.376 371.622,414.543 373.5,413C 377.81,412.993 381.81,412.159 385.5,410.5 Z"/></g>
<g><path style="opacity:1" fill="#024b82" d="M 410.5,419.5 C 407.375,420.479 404.042,420.813 400.5,420.5C 400.829,434.677 400.496,448.677 399.5,462.5C 399.5,448.167 399.5,433.833 399.5,419.5C 403.167,419.5 406.833,419.5 410.5,419.5 Z"/></g>
<g><path style="opacity:1" fill="#e9f5fe" d="M 239.5,421.5 C 239.5,426.833 239.5,432.167 239.5,437.5C 187.5,437.5 135.5,437.5 83.5,437.5C 80.5479,436.641 78.7146,434.641 78,431.5C 77.5017,428.183 77.335,424.85 77.5,421.5C 131.5,421.5 185.5,421.5 239.5,421.5 Z"/></g>
<g><path style="opacity:1" fill="#bfddea" d="M 239.5,421.5 C 244.833,421.5 250.167,421.5 255.5,421.5C 255.5,427.167 255.5,432.833 255.5,438.5C 197.998,438.832 140.664,438.499 83.5,437.5C 135.5,437.5 187.5,437.5 239.5,437.5C 239.5,432.167 239.5,426.833 239.5,421.5 Z"/></g>
</svg>
